<svg id="Icons" height="512" viewBox="0 0 74 74" width="512" xmlns="http://www.w3.org/2000/svg"><path d="m61.5 50.93h-5.93a1 1 0 0 1 0-2h5.93a8.5 8.5 0 0 0 1.709-16.83 1 1 0 0 1 -.769-1.223 17.93 17.93 0 0 0 -17.44-22.377 18.052 18.052 0 0 0 -16.332 10.469 1 1 0 0 1 -1.106.561 12.935 12.935 0 0 0 -2.562-.26 12.6 12.6 0 0 0 -12.542 11.784 1 1 0 0 1 -.89.93 8.5 8.5 0 0 0 .932 16.946h5.93a1 1 0 0 1 0 2h-5.93a10.5 10.5 0 0 1 -1.964-20.813 14.569 14.569 0 0 1 16.653-12.682 19.99 19.99 0 0 1 37.811 9.065 19.79 19.79 0 0 1 -.4 3.895 10.5 10.5 0 0 1 -3.1 20.535z"/><path d="m58 27.5a1 1 0 0 1 -1-1 12.013 12.013 0 0 0 -12-12 1 1 0 0 1 0-2 14.015 14.015 0 0 1 14 14 1 1 0 0 1 -1 1z"/><path d="m39.037 69.567h-4.074a1.552 1.552 0 0 1 -1.515-1.238l-.693-3.415a15.459 15.459 0 0 1 -3.3-1.366l-2.9 1.922a1.552 1.552 0 0 1 -1.947-.2l-2.881-2.87a1.548 1.548 0 0 1 -.2-1.948l1.921-2.9a15.445 15.445 0 0 1 -1.366-3.3l-3.416-.7a1.553 1.553 0 0 1 -1.236-1.515v-4.074a1.549 1.549 0 0 1 1.238-1.515l3.414-.693a15.467 15.467 0 0 1 1.366-3.3l-1.922-2.9a1.548 1.548 0 0 1 .2-1.948l2.876-2.878a1.551 1.551 0 0 1 1.946-.2l2.905 1.923a15.459 15.459 0 0 1 3.3-1.366l.692-3.414a1.553 1.553 0 0 1 1.516-1.239h4.074a1.552 1.552 0 0 1 1.515 1.238l.693 3.415a15.459 15.459 0 0 1 3.3 1.366l2.9-1.922a1.552 1.552 0 0 1 1.947.2l2.884 2.87a1.551 1.551 0 0 1 .2 1.947l-1.922 2.9a15.467 15.467 0 0 1 1.366 3.3l3.414.693a1.549 1.549 0 0 1 1.238 1.515v4.069a1.551 1.551 0 0 1 -1.235 1.514l-3.417.7a15.445 15.445 0 0 1 -1.366 3.3l1.922 2.9a1.548 1.548 0 0 1 -.2 1.948l-2.874 2.888a1.554 1.554 0 0 1 -1.946.2l-2.905-1.923a15.459 15.459 0 0 1 -3.3 1.366l-.692 3.414a1.553 1.553 0 0 1 -1.52 1.236zm-3.7-2h3.332l.742-3.661a1 1 0 0 1 .747-.773 13.467 13.467 0 0 0 3.9-1.615 1 1 0 0 1 1.075.018l3.109 2.064 2.358-2.357-2.064-3.113a1 1 0 0 1 -.018-1.075 13.454 13.454 0 0 0 1.614-3.9 1 1 0 0 1 .772-.747l3.662-.747v-3.327l-3.661-.743a1 1 0 0 1 -.773-.746 13.454 13.454 0 0 0 -1.614-3.9 1 1 0 0 1 .018-1.075l2.064-3.113-2.358-2.357-3.113 2.062a1 1 0 0 1 -1.075.018 13.467 13.467 0 0 0 -3.9-1.615 1 1 0 0 1 -.747-.773l-.742-3.661h-3.331l-.742 3.661a1 1 0 0 1 -.747.773 13.467 13.467 0 0 0 -3.9 1.615 1 1 0 0 1 -1.075-.018l-3.112-2.062-2.358 2.357 2.061 3.113a1 1 0 0 1 .018 1.075 13.454 13.454 0 0 0 -1.614 3.9 1 1 0 0 1 -.773.746l-3.661.743v3.327l3.662.747a1 1 0 0 1 .772.747 13.454 13.454 0 0 0 1.614 3.9 1 1 0 0 1 -.018 1.075l-2.061 3.113 2.358 2.357 3.113-2.062a1 1 0 0 1 1.075-.018 13.467 13.467 0 0 0 3.9 1.615 1 1 0 0 1 .747.773z"/><path d="m37 59.665a9.665 9.665 0 1 1 9.664-9.665 9.675 9.675 0 0 1 -9.664 9.665zm0-17.33a7.665 7.665 0 1 0 7.664 7.665 7.673 7.673 0 0 0 -7.664-7.665z"/></svg>