<svg id="Capa_1" enable-background="new 0 0 511.919 511.919" height="512" viewBox="0 0 511.919 511.919" width="512" xmlns="http://www.w3.org/2000/svg"><g><path d="m235.113 469.758c-4.143 0-7.5 3.357-7.5 7.5s3.357 7.5 7.5 7.5h41.692c4.143 0 7.5-3.357 7.5-7.5s-3.357-7.5-7.5-7.5z"/><path d="m253.855 42.5c0-4.143-3.357-7.5-7.5-7.5h-110.189c-4.143 0-7.5 3.357-7.5 7.5v406.92c0 4.143 3.357 7.5 7.5 7.5h239.587c4.143 0 7.5-3.357 7.5-7.5v-406.92c0-4.143-3.357-7.5-7.5-7.5h-99.411c-4.143 0-7.5 3.357-7.5 7.5s3.357 7.5 7.5 7.5h91.911v391.92h-224.587v-391.92h102.689c4.143 0 7.5-3.357 7.5-7.5z"/><path d="m390.997 0h-270.075c-15.029 0-27.256 12.227-27.256 27.256v359.476c0 4.143 3.357 7.5 7.5 7.5s7.5-3.357 7.5-7.5v-359.476c0-6.758 5.498-12.256 12.256-12.256h270.075c6.758 0 12.256 5.498 12.256 12.256v457.407c0 6.758-5.498 12.256-12.256 12.256h-270.075c-6.758 0-12.256-5.498-12.256-12.256v-67.944c0-4.143-3.357-7.5-7.5-7.5s-7.5 3.357-7.5 7.5v67.944c0 15.029 12.227 27.256 27.256 27.256h270.075c15.029 0 27.256-12.227 27.256-27.256v-457.407c0-15.029-12.227-27.256-27.256-27.256z"/><path d="m240.793 84.789c0-12.048-9.801-21.849-21.848-21.849h-27.635c-12.047 0-21.848 9.801-21.848 21.849v13.817c0 9.315 3.593 17.804 9.462 24.163-2.237 3.883-3.456 8.315-3.456 12.88v24.611c0 6.256 5.089 11.345 11.345 11.345h36.63c6.255 0 11.344-5.089 11.344-11.345v-24.611c0-4.565-1.219-8.998-3.456-12.88 5.868-6.359 9.461-14.848 9.461-24.163v-13.817zm-56.33 0c0-3.776 3.072-6.849 6.848-6.849h27.635c3.775 0 6.848 3.072 6.848 6.849v13.817c0 11.395-9.271 20.665-20.665 20.665s-20.665-9.271-20.665-20.665v-13.817zm35.324 71.816h-29.318v-20.956c0-1.443.303-2.853.851-4.161 4.249 1.792 8.915 2.783 13.808 2.783s9.559-.992 13.808-2.783c.548 1.309.851 2.718.851 4.161z"/><path d="m269.36 106.457h65.596c4.143 0 7.5-3.357 7.5-7.5s-3.357-7.5-7.5-7.5h-65.596c-4.143 0-7.5 3.357-7.5 7.5s3.358 7.5 7.5 7.5z"/><path d="m269.36 143.089h45.596c4.143 0 7.5-3.357 7.5-7.5s-3.357-7.5-7.5-7.5h-45.596c-4.143 0-7.5 3.357-7.5 7.5s3.358 7.5 7.5 7.5z"/><path d="m240.793 213.476c0-12.048-9.801-21.849-21.848-21.849h-27.635c-12.047 0-21.848 9.801-21.848 21.849v13.817c0 9.315 3.593 17.804 9.462 24.163-2.237 3.883-3.456 8.316-3.456 12.881v24.611c0 6.255 5.089 11.344 11.345 11.344h36.63c6.255 0 11.344-5.089 11.344-11.344v-24.611c0-4.565-1.219-8.998-3.456-12.881 5.868-6.359 9.462-14.848 9.462-24.163zm-56.33 0c0-3.776 3.072-6.849 6.848-6.849h27.635c3.775 0 6.848 3.072 6.848 6.849v13.817c0 11.395-9.271 20.665-20.665 20.665s-20.665-9.271-20.665-20.665v-13.817zm35.324 71.816h-29.318v-20.955c0-1.444.303-2.854.851-4.162 4.249 1.791 8.915 2.783 13.808 2.783s9.559-.992 13.808-2.783c.548 1.309.851 2.718.851 4.162z"/><path d="m269.36 235.144h65.596c4.143 0 7.5-3.357 7.5-7.5s-3.357-7.5-7.5-7.5h-65.596c-4.143 0-7.5 3.357-7.5 7.5s3.358 7.5 7.5 7.5z"/><path d="m269.36 271.776h45.596c4.143 0 7.5-3.357 7.5-7.5s-3.357-7.5-7.5-7.5h-45.596c-4.143 0-7.5 3.357-7.5 7.5s3.358 7.5 7.5 7.5z"/><path d="m240.793 342.162c0-12.047-9.801-21.848-21.848-21.848h-27.635c-12.047 0-21.848 9.801-21.848 21.848v13.817c0 9.315 3.593 17.804 9.462 24.163-2.237 3.883-3.456 8.316-3.456 12.881v24.61c0 6.256 5.089 11.345 11.345 11.345h36.63c6.255 0 11.344-5.089 11.344-11.345v-24.61c0-4.565-1.219-8.998-3.456-12.881 5.868-6.359 9.462-14.848 9.462-24.163zm-56.33 0c0-3.775 3.072-6.848 6.848-6.848h27.635c3.775 0 6.848 3.072 6.848 6.848v13.817c0 11.395-9.271 20.665-20.665 20.665s-20.665-9.271-20.665-20.665v-13.817zm35.324 71.817h-29.318v-20.955c0-1.444.303-2.854.851-4.162 4.249 1.791 8.915 2.783 13.808 2.783s9.559-.992 13.808-2.783c.548 1.309.851 2.718.851 4.162z"/><path d="m269.36 363.83h65.596c4.143 0 7.5-3.357 7.5-7.5s-3.357-7.5-7.5-7.5h-65.596c-4.143 0-7.5 3.357-7.5 7.5s3.358 7.5 7.5 7.5z"/><path d="m269.36 400.463h45.596c4.143 0 7.5-3.357 7.5-7.5s-3.357-7.5-7.5-7.5h-45.596c-4.143 0-7.5 3.357-7.5 7.5s3.358 7.5 7.5 7.5z"/></g></svg>