<svg id="Capa_1" enable-background="new 0 0 506.001 506.001" height="512" viewBox="0 0 506.001 506.001" width="512" xmlns="http://www.w3.org/2000/svg"><g><g><path d="m304.67 325.131c0-4.093-3.319-7.412-7.412-7.412h-129.11c-4.093 0-7.412 3.319-7.412 7.412 0 4.094 3.319 7.412 7.412 7.412h129.11c4.093 0 7.412-3.317 7.412-7.412zm-106.757 50.212c-4.093 0-7.412 3.318-7.412 7.412 0 4.093 3.319 7.412 7.412 7.412h69.578c4.093 0 7.412-3.319 7.412-7.412 0-4.094-3.319-7.412-7.412-7.412zm280.405-371.021c-3.625-1.902-8.106-.508-10.007 3.118-1.902 3.624-.507 8.105 3.118 10.007 7.618 3.999 12.351 11.822 12.351 20.417v150.908c0 12.704-10.335 23.041-23.041 23.041h-3.842c-2.284-22.57-14.916-42.429-34.133-54.068 10.227-9.846 16.609-23.658 16.609-38.941 0-29.824-24.263-54.088-54.087-54.088s-54.088 24.263-54.088 54.088c0 15.284 6.382 29.096 16.609 38.941-19.218 11.639-31.849 31.498-34.133 54.068h-3.842c-12.704 0-23.04-10.335-23.04-23.041v-150.908c-.001-12.704 10.334-23.04 23.039-23.04h130.456c4.093 0 7.412-3.318 7.412-7.412s-3.32-7.412-7.413-7.412h-130.457c-20.878 0-37.864 16.987-37.864 37.864v.491h-181.891c-20.385 0-36.97 16.584-36.97 36.97v5.123h-12.836c-18.124 0-32.869 14.745-32.869 32.869 0 18.125 14.745 32.87 32.869 32.87h12.837v40.167h-12.837c-18.124 0-32.869 14.745-32.869 32.869 0 18.125 14.745 32.87 32.869 32.87h12.837v40.168h-12.837c-18.124 0-32.869 14.745-32.869 32.869 0 18.125 14.745 32.87 32.869 32.87h12.837v40.167h-12.837c-18.124 0-32.869 14.745-32.869 32.869 0 18.125 14.745 32.87 32.869 32.87h12.837v5.123c0 20.385 16.584 36.97 36.97 36.97h38.968c4.093 0 7.412-3.318 7.412-7.412s-3.319-7.412-7.412-7.412h-38.969c-12.211 0-22.145-9.935-22.145-22.145v-5.123h12.836c18.124 0 32.87-14.745 32.87-32.87 0-18.124-14.745-32.869-32.87-32.869h-12.836v-40.167h12.836c18.124 0 32.87-14.745 32.87-32.87 0-18.124-14.745-32.869-32.87-32.869h-12.836v-40.168h12.836c18.124 0 32.87-14.745 32.87-32.87 0-18.124-14.745-32.869-32.87-32.869h-12.836v-40.167h12.836c18.124 0 32.87-14.745 32.87-32.87 0-18.124-14.745-32.869-32.87-32.869h-12.836v-5.123c0-12.211 9.934-22.145 22.145-22.145h181.891v91.409c-11.176-8.482-24.958-13.257-39.263-13.257-35.796 0-64.918 29.122-64.918 64.918s29.122 64.918 64.918 64.918c26.158 0 49.319-15.562 59.494-38.904 5.271 2.786 11.269 4.372 17.634 4.372h87.647v173.702.076 39.653c0 28.182-22.927 51.109-51.108 51.109h-181.359c-4.093 0-7.412 3.318-7.412 7.412s3.319 7.412 7.412 7.412h181.359c36.356 0 65.932-29.577 65.932-65.933v-34.759l31.929-13.438c12.778-5.377 21.036-17.811 21.036-31.674v-54.761c0-13.864-8.257-26.297-21.036-31.675l-31.929-13.437v-33.686h48.437c20.878 0 37.865-16.987 37.865-37.865v-150.909c-.001-14.122-7.774-26.974-20.285-33.542zm-397.554 408.671c9.95 0 18.046 8.095 18.046 18.045s-8.095 18.046-18.046 18.046h-40.496c-9.95 0-18.045-8.095-18.045-18.046 0-9.95 8.095-18.045 18.045-18.045zm0-105.906c9.95 0 18.046 8.094 18.046 18.045 0 9.95-8.095 18.046-18.046 18.046h-40.496c-9.95 0-18.045-8.095-18.045-18.046 0-9.95 8.095-18.045 18.045-18.045zm0-105.907c9.95 0 18.046 8.095 18.046 18.045s-8.095 18.046-18.046 18.046h-40.496c-9.95 0-18.045-8.095-18.045-18.046 0-9.95 8.095-18.045 18.045-18.045zm0-105.907c9.95 0 18.046 8.095 18.046 18.045s-8.095 18.046-18.046 18.046h-40.496c-9.95 0-18.045-8.095-18.045-18.046 0-9.95 8.095-18.045 18.045-18.045zm151.938 151.072c-27.622 0-50.094-22.472-50.094-50.094s22.472-50.094 50.094-50.094c15.285 0 29.787 7.081 39.263 19.032v23.583c0 8.873 3.076 17.036 8.207 23.498-6.801 20.241-25.802 34.075-47.47 34.075zm113.319-127.542c0-21.649 17.613-39.263 39.263-39.263 21.649 0 39.262 17.613 39.262 39.263 0 21.649-17.613 39.262-39.262 39.262s-39.263-17.612-39.263-39.262zm92.459 168.621c7.267 3.058 11.961 10.127 11.961 18.011v54.761c0 7.884-4.694 14.953-11.961 18.01l-26.18 11.017v-112.816zm-109.887-75.611c2.495-19.475 14.727-36.223 32.784-44.51 14.997 7.422 32.694 7.481 47.812 0 18.057 8.287 30.29 25.035 32.784 44.51z"/></g></g></svg>