<svg id="Capa_1" enable-background="new 0 0 609.765 609.765" height="512" viewBox="0 0 609.765 609.765" width="512" xmlns="http://www.w3.org/2000/svg"><g><g id="Page-1_37_"><g id="_x30_38---Cutomer-Satisfaction" transform="translate(0 -1)"><path id="Shape_120_" d="m156.749 349.07c-44.438 11.875-75.365 52.111-75.41 98.109v1.565c-6.105 1.324-11.291 5.324-14.123 10.892l-15.139 30.014-33.936 4.816c-7.98 1.083-14.624 6.663-17.069 14.336-2.472 7.569-.345 15.884 5.456 21.337l24.415 23.267-5.761 32.869c-1.396 7.782 1.782 15.676 8.179 20.321 6.495 4.825 15.176 5.515 22.353 1.778l30.41-15.637 30.41 15.637c7.162 3.723 15.821 3.033 22.302-1.778 6.399-4.644 9.58-12.537 8.189-20.321l-2.845-16.257h56.268l-1.016 5.476c-1.981 11.131 2.563 22.417 11.705 29.069 5.33 3.965 11.798 6.103 18.441 6.096 4.929-.004 9.786-1.178 14.174-3.424l61.267-31.07 60.962 31.07c10.495 5.403 23.152 4.355 32.615-2.703 9.127-6.649 13.666-17.919 11.695-29.038l-1.016-5.476h56.289l-2.845 16.257c-1.391 7.783 1.79 15.677 8.189 20.321 6.494 4.83 15.177 5.52 22.353 1.778l30.41-15.637 30.41 15.637c7.176 3.74 15.858 3.049 22.353-1.778 6.378-4.657 9.535-12.549 8.128-20.321l-5.761-32.828 24.436-23.308c5.802-5.453 7.928-13.768 5.456-21.337-2.448-7.679-9.102-13.261-17.09-14.336l-33.936-4.816-15.139-30.014c-2.835-5.57-8.025-9.569-14.133-10.892v-1.565c-.045-45.998-30.972-86.233-75.41-98.109l-80.379-21.449c-6.978-15.052-10.216-31.567-9.439-48.14 7.783-6.553 14.743-12.802 20.168-17.852 8.262-7.698 12.96-18.478 12.975-29.77v-8.575c16.084-4.102 28.036-17.605 30.153-34.069s-6.028-32.552-20.551-40.59c7.315-10.487 11.072-23.044 10.719-35.825-.213-35.869-23.487-67.526-57.66-78.428 1.57-1.519 3.304-2.859 5.172-3.993 3.458-1.799 5.583-5.417 5.468-9.313s-2.448-7.383-6.007-8.975c-18.593-7.743-38.601-11.508-58.737-11.054-31.785-.444-61.476 15.805-78.235 42.816-21.936 11.118-35.128 34.247-33.529 58.788.147 15.817 4.723 31.276 13.208 44.624-15.514 7.25-24.801 23.464-23.206 40.514s13.729 31.26 30.318 35.506v8.575c.015 11.292 4.713 22.072 12.975 29.77 5.426 5.08 12.385 11.298 20.168 17.852.767 16.571-2.467 33.083-9.429 48.14zm-31.446 191.483c-3.736 3.553-5.444 8.74-4.552 13.818l6.208 35.419 10.018-1.748-11.176 2.225-32.513-16.724c-4.51-2.327-9.867-2.327-14.377 0l-32.513 16.724 4.643 9.033-5.832-9.51 6.218-35.46c.881-5.102-.86-10.304-4.633-13.849l-25.787-25.889 36.354-5.172c5.071-.702 9.475-3.845 11.786-8.413l16.937-32.594c.528 0 .64.244.701.366l16.257 32.219c2.308 4.557 6.698 7.698 11.756 8.413l36.811 5.974zm261.203 47.753c-3.271 2.468-7.673 2.824-11.298.914l-60.962-31.06c-5.893-2.982-12.853-2.982-18.746 0l-60.962 31.06c-3.623 1.92-8.031 1.563-11.298-.914-2.928-2.056-4.402-5.621-3.78-9.144l11.634-65.778c1.178-6.608-1.066-13.364-5.964-17.953l-49.298-46.717c-2.691-2.395-3.701-6.161-2.571-9.581 1.204-3.712 4.473-6.372 8.352-6.797l68.166-9.602c6.582-.903 12.308-4.966 15.332-10.882l30.481-59.855c1.865-3.397 5.432-5.507 9.307-5.507s7.442 2.111 9.307 5.507l30.481 59.855c3.037 5.909 8.761 9.969 15.342 10.882l68.166 9.602c3.879.425 7.148 3.086 8.352 6.797 1.131 3.421.12 7.186-2.571 9.581l-49.318 46.595c-4.896 4.586-7.141 11.338-5.964 17.943l11.634 65.788c.622 3.538-.869 7.116-3.82 9.165v.101zm-109.021-245.566c-7.312-2.066-14.276-5.206-20.666-9.317 5.273-12.139 8.491-25.07 9.52-38.264 1.24.925 2.428 1.88 3.668 2.784 6.993 5.121 15.432 7.889 24.1 7.905h21.52c8.665-.014 17.101-2.782 24.09-7.905 1.25-.904 2.438-1.87 3.678-2.784 1.025 13.195 4.242 26.127 9.52 38.264-6.39 4.111-13.355 7.251-20.666 9.317-5.334-10.188-15.883-16.572-27.382-16.572s-22.048 6.384-27.382 16.572zm246.847 126.05 16.257 32.219c2.309 4.556 6.698 7.697 11.755 8.413l36.821 5.974-26.224 25.076c-3.751 3.557-5.474 8.755-4.593 13.849l6.218 35.419 10.008-1.748-11.176 2.225-32.513-16.724c-4.51-2.327-9.867-2.327-14.377 0l-32.513 16.724 4.643 9.033-5.822-9.51 6.198-35.399c.901-5.09-.808-10.294-4.552-13.859l-25.848-25.889 36.354-5.172c5.054-.71 9.441-3.849 11.745-8.403l16.937-32.605c.539.001.682.255.682.377zm-156.104-121.285 79.525 21.225c35.543 9.486 60.283 41.661 60.322 78.448v7.722c-1.3 1.419-2.401 3.008-3.272 4.725l-15.139 30.024-33.946 4.816c-7.983 1.079-14.634 6.654-17.09 14.326-2.461 7.569-.336 15.879 5.456 21.337l20.554 19.569h-58.93l-7.112-39.626 49.318-46.595c8.324-7.766 11.429-19.633 7.976-30.481-3.563-11.157-13.258-19.248-24.873-20.758l-68.237-9.602-21.174-41.586c9.546-3.052 18.535-7.626 26.622-13.544zm-131.273-286.024c2.538-.871 4.64-2.692 5.863-5.08 12.762-22.106 36.529-35.529 62.049-35.043 11.74-.107 23.449 1.234 34.86 3.993-2.586 3.255-4.782 6.801-6.543 10.567-1.333 2.851-1.269 6.159.172 8.957 1.442 2.798 4.098 4.769 7.194 5.339 2.266.427 55.76 11.034 55.76 62.588.081 5.922-1.042 11.798-3.302 17.273-5.267-10.568-16.052-17.254-27.86-17.273h-29.8c-16.508.914-32.936-2.885-47.368-10.953-10.254-6.123-21.972-9.36-33.915-9.368-17.812.095-33.219 12.43-37.207 29.79-2.227-6.307-3.387-12.941-3.434-19.63 0-32.382 22.658-40.855 23.531-41.16zm3.282 185.274c-4.135-3.85-6.487-9.245-6.492-14.895v-17.456c0-5.611-4.549-10.16-10.16-10.16-9.183.023-17.234-6.134-19.617-15.003s1.498-18.231 9.456-22.814v7.336c0 5.611 4.549 10.16 10.16 10.16s10.16-4.549 10.16-10.16v-30.481c0-1.25.417-30.481 20.321-30.481 8.698.037 17.214 2.5 24.588 7.112 17.313 9.561 36.939 14.134 56.695 13.208h29.8c4.412-.043 8.403 2.611 10.069 6.696.459 1.101.72 2.273.772 3.465v30.481c0 5.611 4.549 10.16 10.16 10.16s10.16-4.549 10.16-10.16v-7.336c7.958 4.583 11.839 13.945 9.456 22.814s-10.433 15.026-19.617 15.003c-5.611 0-10.16 4.549-10.16 10.16v17.456c-.006 5.65-2.357 11.045-6.492 14.895-13.195 12.381-27.104 23.977-41.658 34.728-3.531 2.612-7.8 4.035-12.192 4.064h-21.54c-4.392-.032-8.66-1.455-12.192-4.064-14.557-10.752-28.474-22.348-41.677-34.728zm27.901 114.294-21.184 41.556-68.166 9.602c-11.615 1.51-21.309 9.6-24.873 20.758-3.453 10.848-.348 22.715 7.976 30.481l49.237 46.22-7.122 40.032h-58.93l20.595-19.599c5.793-5.458 7.917-13.768 5.456-21.337-2.456-7.672-9.106-13.247-17.09-14.326l-33.936-4.816-15.149-30.024c-.879-1.707-1.987-3.286-3.292-4.694v-7.722c.031-36.797 24.778-68.984 60.332-78.469l79.515-21.205c8.091 5.917 17.083 10.491 26.631 13.543z"/></g></g></g></svg>